<svg xmlns="http://www.w3.org/2000/svg" viewBox="0 0 512 512"><defs><linearGradient id="bg" x1="0" y1="0" x2="1" y2="1"><stop stop-color="#123f73"/><stop offset="1" stop-color="#061a35"/></linearGradient><linearGradient id="orange" x1="0" y1="0" x2="1" y2="1"><stop stop-color="#ffb02e"/><stop offset="1" stop-color="#f97316"/></linearGradient></defs><rect width="512" height="512" rx="104" fill="url(#bg)"/><path d="M148 360 244 151c6-13 24-13 30 0l91 209h-70l-20-52h-76l-22 52h-29Zm74-111h31l-15-41-16 41Z" fill="#fff"/><path d="M123 334c70-74 151-111 268-104-97 19-177 61-239 126h-52l23-22Z" fill="url(#orange)"/><path d="m112 128 145-60 145 60-145 60-145-60Z" fill="url(#orange)"/><path d="M365 144v74" stroke="#f97316" stroke-width="12" stroke-linecap="round"/><circle cx="365" cy="224" r="11" fill="#f97316"/><path d="m355 235 20 0 11 47h-42l11-47Z" fill="#f97316"/></svg>